<svg height="500" preserveAspectRatio="xMidYMid meet" viewBox="0 0 375 374.999991" width="500" xmlns="http://www.w3.org/2000/svg" zoomAndPan="magnify"><g fill="#b39d24"><path d="m369.871094 188.230469c0 25.488281-.511719 51.050781.148437 76.539062 1.097657 45.117188-27.246093 79.980469-63.355469 95.507813-14.5 6.226562-29.734374 9.523437-45.484374 9.523437-49.289063.070313-98.65625.730469-147.945313-.222656-37.136719-.730469-67.675781-16.257813-89.578125-46.875-11.496094-16.113281-16.992188-34.421875-16.992188-54.269531 0-52.515625 0-104.957032 0-157.472656 0-42.847657 20.875-72.800782 57.933594-92.285157 16.113282-8.421875 33.621094-12.011719 51.855469-12.085937 47.828125 0 95.730469-.292969 143.554687.148437 37.136719.292969 68.117188 14.5 90.96875 44.382813 12.742188 16.699218 18.894532 35.890625 18.894532 56.984375zm-336.179688 0v80.566406c0 12.011719 2.785156 23.292969 9.007813 33.472656 16.332031 26.734375 41.015625 39.769531 71.632812 40.285157 49.144531.730468 98.363281.292968 147.582031.144531 12.085938 0 23.804688-2.488281 34.714844-7.691407 29.738282-14.207031 46.363282-36.839843 46.21875-70.824218-.292968-52-.074218-104.003906-.074218-156.003906 0-14.722657-4.175782-28.199219-12.890626-40.0625-16.847656-22.78125-40.136718-33.984376-67.96875-34.277344-49.074218-.585938-98.144531-.222656-147.21875-.148438-10.472656 0-20.578124 2.125-30.394531 5.785156-26.953125 10.035157-52 35.449219-50.828125 72.878907.878906 25.339843.21875 50.609375.21875 75.875zm0 0"/><path d="m188.671875 265.867188c-47.242187 0-85.328125-37.644532-85.402344-84.519532-.070312-46.144531 38.308594-83.9375 85.253907-83.9375 47.097656-.070312 85.328124 37.648438 85.402343 84.15625 0 46.4375-38.160156 84.230469-85.253906 84.300782zm0-27.097657c32.152344 0 58.226563-25.707031 58.152344-57.347656-.070313-31.347656-26.144531-56.984375-58.152344-56.984375-32.152344 0-58.375 25.5625-58.375 57.128906.074219 31.640625 26.222656 57.277344 58.375 57.203125zm0 0"/><path d="m283.8125 71.777344c9.886719 0 17.945312 8.421875 17.945312 18.75-.074218 10.328125-8.203124 18.675781-18.089843 18.601562-9.742188-.070312-17.726563-8.421875-17.726563-18.527344-.074218-10.328124 7.984375-18.824218 17.871094-18.824218zm0 0"/></g></svg>