<svg xmlns="http://www.w3.org/2000/svg" xmlns:xlink="http://www.w3.org/1999/xlink" width="500" zoomAndPan="magnify" viewBox="0 0 375 374.999991" height="500" preserveAspectRatio="xMidYMid meet" version="1.0"><path fill="rgb(70.199585%, 61.569214%, 14.118958%)" d="M 354.371094 20.628906 C 340.621094 6.875 324.058594 0 304.691406 0 L 70.316406 0 C 50.949219 0 34.382812 6.875 20.628906 20.628906 C 6.878906 34.382812 0.00390625 50.945312 0.00390625 70.3125 L 0.00390625 304.6875 C 0.00390625 324.050781 6.878906 340.617188 20.628906 354.371094 C 34.382812 368.125 50.949219 375 70.316406 375 L 304.6875 375 C 324.054688 375 340.617188 368.125 354.367188 354.371094 C 368.121094 340.617188 374.996094 324.054688 374.996094 304.6875 L 374.996094 70.3125 C 374.996094 50.945312 368.121094 34.378906 354.371094 20.628906 Z M 319.089844 192.871094 L 276.367188 192.871094 L 276.367188 347.894531 L 212.402344 347.894531 L 212.402344 192.871094 L 180.421875 192.871094 L 180.421875 139.402344 L 212.402344 139.402344 L 212.402344 107.417969 C 212.402344 84.46875 217.777344 67.136719 228.515625 55.414062 C 239.257812 43.695312 256.996094 37.839844 281.742188 37.839844 L 324.464844 37.839844 L 324.464844 91.304688 L 297.613281 91.304688 C 288.496094 91.304688 282.675781 92.890625 280.15625 96.066406 C 277.632812 99.242188 276.367188 104.816406 276.367188 112.792969 L 276.367188 139.402344 L 324.710938 139.402344 Z M 319.089844 192.871094 " fill-opacity="1" fill-rule="nonzero"/></svg>