<svg height="500" preserveAspectRatio="xMidYMid meet" viewBox="0 0 375 374.999991" width="500" xmlns="http://www.w3.org/2000/svg" zoomAndPan="magnify"><g fill="#b39d24"><path d="m258.589844 350.269531h-231.972656v-325.539062h231.96875v80.691406l24.730468-24.730469v-68.328125c0-6.828125-5.535156-12.363281-12.363281-12.363281h-256.703125c-6.828125 0-12.363281 5.535156-12.363281 12.363281v350.273438c0 6.828125 5.535156 12.363281 12.363281 12.363281h256.703125c6.828125 0 12.363281-5.535156 12.363281-12.363281v-136.066407l-24.730468 24.730469v98.96875zm0 0"/><path d="m222.132812 54.386719h-159.0625c-5.214843 0-9.449218 4.234375-9.449218 9.449219 0 5.21875 4.234375 9.449218 9.449218 9.449218h159.0625c5.214844 0 9.449219-4.230468 9.449219-9.449218 0-5.214844-4.234375-9.449219-9.449219-9.449219zm0 0"/><path d="m231.582031 114.230469c0-5.214844-4.234375-9.449219-9.449219-9.449219h-159.0625c-5.214843 0-9.449218 4.234375-9.449218 9.449219 0 5.21875 4.234375 9.449219 9.449218 9.449219h159.0625c5.214844 0 9.449219-4.230469 9.449219-9.449219zm0 0"/><path d="m208.839844 155.179688h-145.769532c-5.214843 0-9.449218 4.230468-9.449218 9.449218 0 5.214844 4.234375 9.449219 9.449218 9.449219h126.871094zm0 0"/><path d="m155.984375 217.820312c1.277344-4.28125 3.105469-8.382812 5.332031-12.246093h-98.246094c-5.214843 0-9.445312 4.230469-9.445312 9.449219 0 5.214843 4.230469 9.449218 9.445312 9.449218h90.929688zm0 0"/><path d="m63.070312 255.96875c-5.214843 0-9.449218 4.234375-9.449218 9.449219 0 5.21875 4.234375 9.449219 9.449218 9.449219h83c-2.449218-5.941407-3.082031-12.503907-1.351562-18.898438zm0 0"/><path d="m365.386719 71.570312c-4.949219-4.953124-11.664063-7.734374-18.65625-7.734374-6.992188 0-13.707031 2.78125-18.652344 7.726562l-139.792969 139.800781c-3.816406 3.8125-6.613281 8.507813-8.160156 13.675781l-11.136719 37.339844c-.476562 1.582032-.046875 3.292969 1.125 4.460938.855469.855468 2 1.316406 3.171875 1.316406.425782 0 .863282-.0625 1.289063-.191406l37.339843-11.140625c5.167969-1.542969 9.863282-4.34375 13.675782-8.15625l139.796875-139.792969c4.945312-4.945312 7.726562-11.65625 7.726562-18.652344s-2.78125-13.707031-7.726562-18.652344zm0 0"/></g></svg>